<svg width="192" height="192" viewBox="0 0 192 192" fill="none" xmlns="http://www.w3.org/2000/svg">
<path opacity="0.2" d="M104.025 131.625L89.625 170.7C89.1988 171.848 88.4314 172.839 87.4259 173.538C86.4203 174.237 85.2248 174.612 84 174.612C82.7752 174.612 81.5797 174.237 80.5742 173.538C79.5687 172.839 78.8012 171.848 78.375 170.7L63.975 131.625C63.6711 130.8 63.1919 130.051 62.5703 129.43C61.9488 128.808 61.1998 128.329 60.375 128.025L21.3 113.625C20.1518 113.199 19.1614 112.431 18.4621 111.426C17.7628 110.42 17.3879 109.225 17.3879 108C17.3879 106.775 17.7628 105.58 18.4621 104.574C19.1614 103.569 20.1518 102.801 21.3 102.375L60.375 87.975C61.1998 87.6711 61.9488 87.1919 62.5703 86.5703C63.1919 85.9488 63.6711 85.1998 63.975 84.375L78.375 45.3C78.8012 44.1518 79.5687 43.1614 80.5742 42.4621C81.5797 41.7628 82.7752 41.3879 84 41.3879C85.2248 41.3879 86.4203 41.7628 87.4259 42.4621C88.4314 43.1614 89.1988 44.1518 89.625 45.3L104.025 84.375C104.329 85.1998 104.808 85.9488 105.43 86.5703C106.051 87.1919 106.8 87.6711 107.625 87.975L146.7 102.375C147.848 102.801 148.839 103.569 149.538 104.574C150.237 105.58 150.612 106.775 150.612 108C150.612 109.225 150.237 110.42 149.538 111.426C148.839 112.431 147.848 113.199 146.7 113.625L107.625 128.025C106.8 128.329 106.051 128.808 105.43 129.43C104.808 130.051 104.329 130.8 104.025 131.625Z" fill="#0B63E5"/>
<path d="M104.025 131.625L89.625 170.7C89.1988 171.848 88.4314 172.839 87.4259 173.538C86.4203 174.237 85.2248 174.612 84 174.612C82.7752 174.612 81.5797 174.237 80.5742 173.538C79.5687 172.839 78.8012 171.848 78.375 170.7L63.975 131.625C63.6711 130.8 63.1919 130.051 62.5703 129.43C61.9488 128.808 61.1998 128.329 60.375 128.025L21.3 113.625C20.1518 113.199 19.1614 112.431 18.4621 111.426C17.7628 110.42 17.3879 109.225 17.3879 108C17.3879 106.775 17.7628 105.58 18.4621 104.574C19.1614 103.569 20.1518 102.801 21.3 102.375L60.375 87.975C61.1998 87.6711 61.9488 87.1919 62.5703 86.5703C63.1919 85.9488 63.6711 85.1998 63.975 84.375L78.375 45.3C78.8012 44.1518 79.5687 43.1614 80.5742 42.4621C81.5797 41.7628 82.7752 41.3879 84 41.3879C85.2248 41.3879 86.4203 41.7628 87.4259 42.4621C88.4314 43.1614 89.1988 44.1518 89.625 45.3L104.025 84.375C104.329 85.1998 104.808 85.9488 105.43 86.5703C106.051 87.1919 106.8 87.6711 107.625 87.975L146.7 102.375C147.848 102.801 148.839 103.569 149.538 104.574C150.237 105.58 150.612 106.775 150.612 108C150.612 109.225 150.237 110.42 149.538 111.426C148.839 112.431 147.848 113.199 146.7 113.625L107.625 128.025C106.8 128.329 106.051 128.808 105.43 129.43C104.808 130.051 104.329 130.8 104.025 131.625V131.625Z" stroke="#0B63E5" stroke-width="12" stroke-linecap="round" stroke-linejoin="round"/>
<path d="M132 12V48" stroke="#0B63E5" stroke-width="12" stroke-linecap="round" stroke-linejoin="round"/>
<path d="M150 30H114" stroke="#0B63E5" stroke-width="12" stroke-linecap="round" stroke-linejoin="round"/>
<path d="M168 54V78" stroke="#0B63E5" stroke-width="12" stroke-linecap="round" stroke-linejoin="round"/>
<path d="M180 66H156" stroke="#0B63E5" stroke-width="12" stroke-linecap="round" stroke-linejoin="round"/>
</svg>
