<svg width="192" height="192" viewBox="0 0 192 192" fill="none" xmlns="http://www.w3.org/2000/svg">
<path opacity="0.2" d="M42 117C50.2843 117 57 110.284 57 102C57 93.7157 50.2843 87 42 87C33.7157 87 27 93.7157 27 102C27 110.284 33.7157 117 42 117Z" fill="#0B63E5"/>
<path d="M96 81V162" stroke="#0B63E5" stroke-width="12" stroke-linecap="round" stroke-linejoin="round"/>
<path d="M96 30V51" stroke="#0B63E5" stroke-width="12" stroke-linecap="round" stroke-linejoin="round"/>
<path d="M96 81C104.284 81 111 74.2843 111 66C111 57.7157 104.284 51 96 51C87.7157 51 81 57.7157 81 66C81 74.2843 87.7157 81 96 81Z" stroke="#0B63E5" stroke-width="12" stroke-linecap="round" stroke-linejoin="round"/>
<path d="M150 141V162" stroke="#0B63E5" stroke-width="12" stroke-linecap="round" stroke-linejoin="round"/>
<path d="M150 30V111" stroke="#0B63E5" stroke-width="12" stroke-linecap="round" stroke-linejoin="round"/>
<path d="M150 141C158.284 141 165 134.284 165 126C165 117.716 158.284 111 150 111C141.716 111 135 117.716 135 126C135 134.284 141.716 141 150 141Z" stroke="#0B63E5" stroke-width="12" stroke-linecap="round" stroke-linejoin="round"/>
<path d="M42 117V162" stroke="#0B63E5" stroke-width="12" stroke-linecap="round" stroke-linejoin="round"/>
<path d="M42 30V87" stroke="#0B63E5" stroke-width="12" stroke-linecap="round" stroke-linejoin="round"/>
<path d="M42 117C50.2843 117 57 110.284 57 102C57 93.7157 50.2843 87 42 87C33.7157 87 27 93.7157 27 102C27 110.284 33.7157 117 42 117Z" stroke="#0B63E5" stroke-width="12" stroke-linecap="round" stroke-linejoin="round"/>
</svg>
