<svg width="192" height="192" viewBox="0 0 192 192" fill="none" xmlns="http://www.w3.org/2000/svg">
<path opacity="0.2" d="M55.4249 83.55L31.8749 111.75C31.2816 112.442 30.863 113.267 30.6542 114.154C30.4454 115.041 30.4525 115.966 30.6749 116.85L39.8999 158.625C40.1225 159.618 40.594 160.538 41.2701 161.299C41.9462 162.059 42.8046 162.635 43.7646 162.973C44.7246 163.31 45.7547 163.398 46.758 163.228C47.7613 163.058 48.7049 162.635 49.4999 162L71.9999 144C58.7999 121.05 54.5249 100.875 55.4249 83.55Z" fill="#0B63E5"/>
<path opacity="0.2" d="M136.125 83.0249L159.675 111.3C160.268 111.992 160.687 112.816 160.896 113.704C161.105 114.591 161.097 115.516 160.875 116.4L151.65 158.1C151.437 159.099 150.973 160.028 150.301 160.797C149.629 161.567 148.772 162.152 147.811 162.498C146.849 162.843 145.815 162.938 144.807 162.772C143.799 162.606 142.85 162.185 142.05 161.55L119.55 143.55C132.75 120.525 137.025 100.35 136.125 83.0249Z" fill="#0B63E5"/>
<path d="M108 168H84" stroke="#0B63E5" stroke-width="12" stroke-linecap="round" stroke-linejoin="round"/>
<path d="M92.2501 14.85C78.0001 26.25 30.3751 71.85 72.0001 144H120C160.8 71.85 113.85 26.325 99.7501 14.85C98.698 13.9713 97.3708 13.49 96.0001 13.49C94.6294 13.49 93.3021 13.9713 92.2501 14.85Z" stroke="#0B63E5" stroke-width="12" stroke-linecap="round" stroke-linejoin="round"/>
<path d="M55.4249 83.55L31.8749 111.75C31.2816 112.442 30.863 113.267 30.6542 114.154C30.4454 115.041 30.4525 115.966 30.6749 116.85L39.8999 158.625C40.1225 159.618 40.594 160.538 41.2701 161.299C41.9462 162.059 42.8046 162.635 43.7646 162.973C44.7246 163.31 45.7547 163.398 46.758 163.228C47.7613 163.058 48.7049 162.635 49.4999 162L71.9999 144" stroke="#0B63E5" stroke-width="12" stroke-linecap="round" stroke-linejoin="round"/>
<path d="M136.125 82.95L160.125 111.75C160.718 112.442 161.137 113.267 161.346 114.154C161.554 115.041 161.547 115.966 161.325 116.85L152.1 158.625C151.877 159.618 151.406 160.538 150.73 161.299C150.054 162.059 149.195 162.635 148.235 162.973C147.275 163.31 146.245 163.398 145.242 163.228C144.239 163.058 143.295 162.635 142.5 162L120 144" stroke="#0B63E5" stroke-width="12" stroke-linecap="round" stroke-linejoin="round"/>
<path d="M96 81C100.971 81 105 76.9706 105 72C105 67.0294 100.971 63 96 63C91.0294 63 87 67.0294 87 72C87 76.9706 91.0294 81 96 81Z" fill="#0B63E5"/>
</svg>
